<svg xmlns="http://www.w3.org/2000/svg"
	xmlns:xlink="http://www.w3.org/1999/xlink" version="1.1" x="0px" y="0px" viewBox="0 0 2200 2200" style="enable-background:new 0 0 2200 2200;" xml:space="preserve">

	<g id="objects">
		<g>
			<path style="fill:#F4AB2A;" d="M354.462,1744.997c-57.032,0-102.645-47.703-102.645-104.735V509.156    c0-29.91,24.247-54.156,54.156-54.156h655.54c29.91,0,54.156,24.247,54.156,54.156v17.339h640.694    c29.91,0,54.156,24.247,54.156,54.156v122.846C1710.52,703.498,814.124,1744.997,354.462,1744.997z"/>
			<path style="fill:#FFFFFF;" d="M458.693,1641.562h-92.607c-5.982,0-10.831-4.849-10.831-10.831V634.669    c0-5.982,4.849-10.831,10.831-10.831h1230.905c5.982,0,10.831,4.849,10.831,10.831v68.833L458.693,1641.562z"/>
			<path style="fill:#F9C32D;" d="M1948.183,757.657v883.905c0,57.124-46.304,103.438-103.438,103.438H355.255    c57.124,0,103.438-46.314,103.438-103.438V757.657c0-29.916,24.251-54.156,54.156-54.156h1381.177    C1923.932,703.501,1948.183,727.741,1948.183,757.657z"/>
			<path style="fill:#F4AB2A;" d="M1948.183,757.657v883.905c0,57.124-46.304,103.438-103.438,103.438h-637.136    c87.419-8.936,174.47-21.424,260.87-37.444c88.285-16.366,181.196-39.242,243.898-103.503    c41.874-42.924,65.951-100.665,77.801-159.447c11.86-58.781,12.369-119.176,12.835-179.138    c1.451-187.326,2.903-374.642,4.365-561.968h86.65C1923.932,703.501,1948.183,727.741,1948.183,757.657z"/>
			<path style="fill:#FFE45F;" d="M541.559,982.204l0-157.656c0-17.03,13.805-30.835,30.835-30.835h375.978    c7.199,0,8.239,10.388,1.182,11.815l-93.994,19.004c-111.59,22.562-211.712,82.237-284.494,168.551    C561.025,1004.992,541.559,997.782,541.559,982.204z"/>
		</g>
	</g>
</svg>