<svg xmlns="http://www.w3.org/2000/svg"
	xmlns:xlink="http://www.w3.org/1999/xlink" version="1.1" x="0px" y="0px" viewBox="0 0 2200 2200" style="enable-background:new 0 0 2200 2200;" xml:space="preserve">
	<g id="Objects">
		<g>
			<path style="fill:#EF5454;" d="M339.093,585.884l702.609-353.992c18.252-9.196,38.276-13.794,58.298-13.794    s40.046,4.598,58.298,13.794l702.609,353.992c16.731,8.429,31.041,20.079,42.36,33.982l-298.006,150.148    c-9.291,4.683-20.566,4.188-29.346-1.241l-1.004-0.631c-9.347-5.796-14.782-16.486-14.185-27.9    c1.938-37.076-19.329-72.198-58.346-96.361c-32.763-20.293-74.459-30.648-117.414-29.165    c-43.159,1.493-82.75,14.783-111.476,37.418c-30.39,23.928-46.57,56.194-44.391,88.524c2.028,30.051,19.872,57.111,48.959,74.242    c45.82,26.99,105.179,35.487,158.79,22.735c2.126-0.508,4.363-0.182,6.107,0.899c3.503,2.172,3.739,5.593,3.679,6.963    c-0.061,1.365-0.597,4.74-4.269,6.586l-342.366,172.499l-364.861-183.84c-11.422-5.75-24.72-5.149-35.574,1.606    c-10.854,6.758-17.264,18.427-17.146,31.212c0.044,4.804,1.011,9.465,2.872,13.852c1.883,4.436,4.573,8.379,7.975,11.696    c35.405,34.679,57.673,84.289,58.116,129.47c0.322,33.007-10.692,59.186-31.013,73.714c-18.283,13.073-42.785,15.182-68.984,5.939    c-29.157-10.301-56.866-33.048-78.021-64.052c-21.274-31.177-33.169-66.683-33.492-99.979    c-0.34-35.154,12.567-63.059,35.406-76.559c19.184-11.33,30.975-32.112,30.771-54.252c-0.115-11.411-3.367-22.561-9.399-32.247    c-6.029-9.676-14.598-17.509-24.793-22.657l-275.125-138.62C308.052,605.963,322.362,594.313,339.093,585.884z" />
			<path style="fill:#C44E55;" d="M339.089,1614.804c-43.959-22.148-71.267-66.485-71.267-115.709v-797.5    c0-21.071,5.018-41.238,14.19-59.161l277.787,139.961c5.805,2.931,10.69,7.395,14.124,12.907    c3.435,5.515,5.286,11.864,5.351,18.347c0.116,12.599-6.633,24.453-17.615,30.94c-31.297,18.498-48.997,54.899-48.563,99.872    c0.375,38.534,13.924,79.308,38.15,114.812c24.34,35.67,56.736,62.024,91.225,74.208c13.73,4.844,27.224,7.246,40.107,7.246    c19.663,0,37.9-5.596,53.364-16.652c27.232-19.469,42.619-54.37,42.216-95.757c-0.513-52.028-25.861-108.867-66.175-148.357    c-0.868-0.847-1.556-1.859-2.045-3.009c-0.482-1.138-0.734-2.36-0.744-3.637c-0.046-4.863,3.147-7.378,4.521-8.234    c1.373-0.855,5.038-2.61,9.377-0.424l363.519,183.163v344.215c0,13.817,6.758,26.8,18.077,34.73    c11.325,7.932,25.842,9.845,38.842,5.121c5.191-1.892,9.92-4.766,14.054-8.542c4.043-3.688,7.319-8.102,9.75-13.137    c21.119-43.933,60.108-80.637,101.747-95.788c31.018-11.291,59.37-9.618,79.834,4.71c18.406,12.889,28.544,35.287,28.544,63.066    c0,30.923-12.222,64.624-34.415,94.895c-22.314,30.438-51.834,53.471-83.119,64.858c-34.642,12.599-66.164,8.913-86.488-10.113    c-14.322-13.405-34.447-17.653-52.586-11.058l-0.812,0.301c-19.995,7.28-33.429,26.464-33.429,47.738v413.087    c-15.485-1.595-30.733-5.951-44.91-13.094L339.089,1614.804z" />
			<path style="fill:#8E353E;" d="M1932.178,1499.095c0,49.224-27.307,93.561-71.267,115.709l-702.613,354.003    c-14.177,7.144-29.425,11.499-44.91,13.094v-413.087c0-10.061,6.354-19.133,15.871-22.598l0.807-0.298    c8.546-3.109,18.154-1.012,25.073,5.464c27.949,26.167,69.479,31.899,113.942,15.729c36.21-13.179,70.147-39.527,95.559-74.189    c25.535-34.829,39.596-74.152,39.596-110.727c0-36.768-14.192-66.955-39.962-85c-27.421-19.201-65.456-22.095-104.349-7.939    c-48.689,17.717-92.324,58.595-116.715,109.33c-0.931,1.927-2.168,3.603-3.679,4.983c-1.541,1.408-3.28,2.471-5.158,3.155    c-4.866,1.769-10.084,1.079-14.322-1.891c-4.234-2.965-6.663-7.632-6.663-12.799v-344.214L1454.407,876    c11.32-5.696,18.414-16.654,18.978-29.314c0.562-12.67-5.538-24.224-16.314-30.906c-5.438-3.375-11.736-5.159-18.213-5.159    c-2.759,0-5.524,0.326-8.212,0.966c-47.036,11.189-98.999,3.802-138.998-19.759c-21.663-12.759-34.389-31.571-35.832-52.972    c-1.577-23.37,10.903-47.311,34.243-65.687c24.289-19.139,58.323-30.394,95.832-31.692c37.716-1.305,74.08,7.632,102.391,25.168    c30.457,18.862,47.117,45.177,45.705,72.197c-1.109,21.166,9.165,41.113,26.745,52.014l1.017,0.639    c16.721,10.343,38.011,11.273,55.561,2.432l300.678-151.493c9.172,17.923,14.19,38.09,14.19,59.161V1499.095z" />
		</g>
	</g>
</svg>